<?xml version="1.0" standalone="no"?>
<!DOCTYPE svg PUBLIC "-//W3C//DTD SVG 20010904//EN"
 "http://www.w3.org/TR/2001/REC-SVG-20010904/DTD/svg10.dtd">
<svg version="1.0" xmlns="http://www.w3.org/2000/svg"
 width="500.000000pt" height="500.000000pt" viewBox="0 0 500.000000 500.000000"
 preserveAspectRatio="xMidYMid meet">
<metadata>
Created by potrace 1.14, written by Peter Selinger 2001-2017
</metadata>
<g transform="translate(0.000000,500.000000) scale(0.100000,-0.100000)"
fill="#000000" stroke="none">
<path d="M1956 4489 c2 -4 16 -10 31 -13 34 -8 117 -48 121 -58 2 -5 8 -8 14
-8 28 0 248 -212 248 -239 0 -4 8 -16 18 -27 22 -23 146 -213 147 -224 0 -3 8
-16 17 -30 9 -14 35 -59 58 -100 23 -41 51 -88 61 -105 10 -16 24 -41 32 -55
46 -84 210 -367 218 -374 17 -18 9 -42 -21 -59 -16 -10 -32 -17 -36 -17 -4 1
-10 -2 -13 -7 -6 -9 -181 -113 -216 -128 -19 -8 -18 -9 5 -13 38 -6 42 -16 17
-40 l-23 -22 -42 20 c-69 33 -142 48 -219 45 -126 -5 -226 -75 -282 -195 -21
-46 -25 -69 -25 -140 1 -166 37 -206 386 -429 110 -71 167 -128 169 -169 4
-95 -18 -142 -83 -177 -45 -25 -58 -27 -122 -23 -83 6 -140 31 -191 85 -38 41
-87 129 -105 189 -11 36 -15 40 -39 36 l-26 -4 -1 -189 0 -190 25 3 c17 2 32
15 46 40 l21 37 38 -25 c76 -52 141 -69 266 -69 108 0 119 2 180 31 76 36 121
79 158 149 23 44 26 62 27 145 0 86 -3 100 -29 147 -39 71 -86 112 -251 220
-263 172 -286 194 -290 279 -6 100 56 159 167 159 58 0 72 -4 110 -30 49 -35
89 -91 121 -168 19 -44 26 -52 50 -53 l27 -1 0 164 0 164 83 -6 c45 -3 102 -8
127 -10 25 -2 81 -7 125 -10 44 -3 98 -8 120 -10 22 -2 76 -6 120 -10 44 -4
96 -9 115 -11 19 -2 75 -6 124 -9 49 -3 93 -8 98 -11 9 -6 174 331 170 349 -1
4 2 7 8 7 5 0 10 5 10 10 0 9 68 156 124 270 13 25 23 48 24 52 1 5 20 45 42
89 22 45 40 88 40 95 0 7 4 14 9 16 4 2 11 13 15 25 6 18 -21 6 -146 -67 -84
-50 -158 -90 -164 -90 -6 0 -17 14 -24 30 -7 17 -16 30 -21 30 -5 0 -9 5 -9
11 0 14 -186 338 -258 449 -65 100 -156 193 -215 219 -82 36 -82 36 -162 46
-65 9 -1124 12 -1119 4z"/>
<path d="M1784 4358 c-32 -11 -60 -24 -62 -29 -2 -5 -10 -9 -18 -9 -22 0 -148
-130 -179 -185 -15 -27 -35 -61 -44 -75 -8 -14 -16 -27 -16 -30 0 -3 -8 -16
-16 -30 -32 -50 -109 -181 -109 -185 0 -8 -75 -131 -85 -137 -5 -4 -6 -8 -2
-8 5 0 -1 -12 -12 -26 -16 -21 -18 -30 -10 -40 6 -8 18 -14 25 -14 8 0 14 -4
14 -9 0 -5 8 -11 18 -14 9 -4 35 -17 57 -30 52 -31 233 -137 265 -154 14 -8
43 -25 65 -38 22 -14 74 -44 115 -67 41 -24 83 -47 92 -53 95 -56 141 -76 149
-63 5 7 9 19 9 26 0 6 3 12 8 12 4 0 13 15 21 33 8 17 17 34 20 37 3 3 14 21
24 40 32 61 52 95 57 100 3 3 17 26 30 53 14 26 28 47 32 47 5 0 8 9 8 20 0
11 4 20 9 20 5 0 11 8 14 18 4 9 20 40 37 67 17 28 33 58 37 68 3 9 10 17 16
17 6 0 7 3 4 7 -4 3 -1 13 6 22 8 9 25 36 38 61 13 25 26 47 29 50 8 8 5 32
-8 63 -14 34 -79 135 -98 154 -8 8 -14 19 -14 24 0 5 -44 53 -97 107 -91 90
-172 146 -231 157 -9 2 -17 4 -17 5 0 1 -27 3 -61 5 -41 2 -81 -4 -120 -17z"/>
<path d="M1376 3183 c-1 -1 -40 -5 -86 -8 -47 -3 -105 -7 -130 -10 -25 -2 -76
-6 -115 -10 -38 -3 -90 -8 -115 -10 -25 -3 -79 -7 -120 -10 -192 -14 -314 -25
-319 -30 -2 -3 5 -8 15 -12 10 -4 63 -33 117 -65 54 -32 103 -58 108 -58 5 0
9 -4 9 -10 0 -5 11 -12 24 -16 14 -3 27 -12 30 -19 6 -16 -4 -55 -14 -55 -4 0
-15 -18 -25 -40 -10 -22 -22 -40 -27 -40 -4 0 -8 -5 -8 -10 0 -10 -128 -239
-140 -250 -15 -14 -122 -243 -139 -295 -35 -114 -16 -241 60 -381 61 -114 94
-169 101 -172 4 -2 8 -8 8 -13 0 -6 23 -48 50 -95 27 -47 50 -89 50 -94 0 -6
5 -10 10 -10 6 0 10 -4 10 -9 0 -5 23 -49 51 -98 28 -48 59 -101 69 -118 10
-16 43 -75 75 -130 32 -55 62 -102 67 -103 4 -2 6 -7 4 -11 -3 -3 5 -18 16
-31 11 -14 17 -19 13 -13 -22 43 -26 203 -8 286 8 34 16 71 18 82 1 11 13 45
25 75 12 30 23 60 24 65 2 11 42 100 59 130 6 11 24 45 40 75 38 73 55 103
100 176 20 34 37 67 37 73 0 6 5 11 10 11 6 0 10 4 10 9 0 5 32 64 72 132 135
234 211 364 215 369 4 5 56 -22 203 -109 58 -33 108 -61 112 -61 4 0 -19 55
-51 123 -32 67 -73 154 -91 192 -18 39 -51 108 -73 155 -99 209 -134 286 -136
292 -1 5 -10 24 -21 43 -11 20 -20 42 -20 50 0 8 -4 15 -9 15 -5 0 -12 12 -15
26 -6 24 -9 25 -77 22 -39 -2 -72 -4 -73 -5z"/>
<path d="M4095 2962 c-27 -15 -51 -30 -53 -34 -2 -5 -8 -8 -13 -8 -5 0 -44
-21 -87 -46 -42 -25 -86 -50 -97 -57 -11 -6 -73 -42 -138 -79 -65 -37 -122
-68 -127 -68 -6 0 -10 -3 -10 -8 0 -4 -21 -18 -47 -32 -27 -13 -51 -28 -54
-33 -3 -5 -9 -8 -13 -8 -3 1 -28 -13 -55 -29 l-49 -31 47 -82 c26 -45 62 -105
79 -133 18 -28 32 -54 32 -57 0 -11 63 -112 72 -115 4 -2 8 -12 8 -23 0 -10 4
-19 9 -19 5 0 11 -8 14 -17 8 -25 50 -97 62 -105 6 -4 6 -8 1 -8 -5 0 -2 -8 6
-17 8 -10 29 -44 47 -76 49 -87 44 -84 173 -81 121 3 177 9 243 28 6 2 28 6
50 11 61 12 175 71 220 112 35 33 83 98 84 113 0 3 5 19 11 35 13 34 17 153 6
203 -16 78 -71 191 -186 382 -12 20 -131 225 -152 263 -27 47 -30 48 -83 19z"/>
<path d="M2900 1999 c-25 -38 -48 -69 -52 -69 -5 0 -8 -9 -8 -20 0 -11 -4 -20
-8 -20 -5 0 -35 -39 -68 -87 -32 -49 -62 -92 -66 -98 -13 -16 -137 -195 -218
-315 -41 -61 -83 -120 -92 -132 -10 -12 -18 -26 -18 -31 0 -12 50 -88 65 -99
6 -5 6 -8 1 -8 -6 0 -3 -6 5 -12 8 -7 39 -49 69 -93 30 -44 59 -83 64 -87 6
-4 7 -8 3 -8 -7 0 0 -10 31 -45 6 -7 12 -17 12 -20 0 -4 11 -21 25 -39 14 -17
29 -36 34 -42 4 -5 14 -21 21 -35 7 -13 16 -26 19 -29 3 -3 22 -27 41 -55 19
-27 38 -52 42 -53 4 -2 8 -8 8 -13 0 -12 130 -199 138 -199 4 0 7 81 6 180
l-1 180 296 1 c163 1 319 3 346 5 28 3 57 5 65 5 84 5 201 59 266 124 51 51
124 153 124 174 0 6 4 11 10 11 5 0 12 11 16 25 3 14 9 25 13 25 4 0 18 22 32
50 13 27 27 50 32 50 4 0 7 5 7 10 0 6 22 48 48 93 69 116 106 181 106 187 0
3 4 10 9 15 11 13 46 70 73 120 12 22 33 60 48 85 14 25 31 56 38 70 7 14 16
27 19 30 13 9 51 91 46 96 -3 3 -8 -3 -11 -13 -7 -19 -85 -79 -98 -75 -5 1 -8
-2 -8 -7 0 -5 -16 -15 -35 -22 -19 -7 -35 -17 -35 -22 0 -4 -4 -6 -8 -3 -5 3
-20 -1 -35 -9 -15 -8 -27 -11 -27 -8 0 3 -6 1 -12 -5 -14 -11 -142 -39 -228
-50 -30 -4 -289 -7 -575 -7 l-520 0 -1 178 c-1 98 -3 179 -5 181 -2 2 -24 -27
-49 -65z"/>
<path d="M1293 1666 c-10 -13 -24 -33 -32 -46 -43 -75 -61 -110 -61 -122 0 -8
-5 -19 -12 -26 -6 -6 -13 -17 -14 -24 -1 -7 -8 -26 -15 -43 -14 -35 -12 -26
-37 -130 -38 -157 -13 -280 76 -377 40 -43 138 -100 197 -114 17 -4 37 -9 45
-11 8 -3 171 -6 363 -7 308 -2 347 0 348 13 1 27 1 865 0 887 l-1 22 -419 0
-420 0 -18 -22z"/>
</g>
</svg>
